<?xml version="1.0" standalone="no"?>
<!DOCTYPE svg PUBLIC "-//W3C//DTD SVG 20010904//EN"
 "http://www.w3.org/TR/2001/REC-SVG-20010904/DTD/svg10.dtd">
<svg version="1.0" xmlns="http://www.w3.org/2000/svg"
 width="400.000000pt" height="400.000000pt" viewBox="0 0 400.000000 400.000000"
 preserveAspectRatio="xMidYMid meet">

<g transform="translate(0.000000,400.000000) scale(0.100000,-0.100000)"
fill="#000000" stroke="none">
<path d="M531 2875 c-51 -16 -89 -48 -107 -92 -20 -47 -20 -1168 0 -1216 19
-47 68 -84 128 -97 84 -19 811 -8 903 14 163 38 281 123 339 246 27 57 31 76
31 150 0 70 -5 95 -26 140 -33 70 -93 129 -173 171 l-64 33 42 26 c48 31 88
75 119 134 18 33 22 57 22 131 0 78 -4 97 -27 140 -50 95 -157 175 -285 212
-81 23 -833 30 -902 8z m672 -265 c73 -11 126 -33 142 -59 33 -54 21 -125 -29
-169 -46 -40 -121 -52 -339 -52 l-177 0 0 145 0 145 168 0 c92 0 198 -5 235
-10z m46 -550 c70 -12 126 -37 155 -69 30 -33 33 -126 7 -168 -45 -72 -137
-93 -413 -93 l-198 0 0 170 0 170 193 0 c105 0 221 -5 256 -10z"/>
<path d="M2338 2530 c-225 -41 -358 -161 -358 -323 0 -93 61 -177 167 -231 59
-29 182 -67 328 -100 189 -42 235 -65 235 -117 0 -58 -88 -94 -211 -86 -107 7
-152 30 -228 116 -49 54 -73 74 -104 82 -113 30 -217 -51 -200 -156 15 -92
129 -194 261 -235 197 -61 501 -47 652 30 103 52 178 157 187 259 7 76 -10
130 -56 183 -69 78 -179 124 -426 178 -170 37 -227 55 -250 80 -40 45 17 90
123 98 98 6 140 -9 216 -78 83 -75 112 -90 176 -90 128 0 194 94 141 199 -39
76 -134 137 -269 172 -86 23 -305 34 -384 19z"/>
<path d="M3312 1769 c-18 -6 -50 -27 -72 -49 -113 -113 -21 -280 155 -280 49
0 136 39 159 71 101 144 -56 311 -242 258z"/>
</g>
</svg>
